<svg width="30" height="30" viewBox="0 0 30 30" xmlns="http://www.w3.org/2000/svg">
    <g fill="none" fill-rule="evenodd">
        <circle fill="#999" cx="21" cy="7.8" r="1.2"/>
        <path d="M15 10c1.38 0 2.63.56 3.536 1.464A4.984 4.984 0 0 1 20 15c0 1.38-.56 2.63-1.464 3.536A4.984 4.984 0 0 1 15 20c-1.38 0-2.63-.56-3.536-1.464A4.984 4.984 0 0 1 10 15c0-1.38.56-2.63 1.464-3.536A4.984 4.984 0 0 1 15 10z" stroke="#999" stroke-width="2"/>
        <path d="M19.8 3a7.2 7.2 0 0 1 7.2 7.2v9.6a7.2 7.2 0 0 1-7.2 7.2h-9.6A7.2 7.2 0 0 1 3 19.8v-9.6A7.2 7.2 0 0 1 10.2 3h9.6z" stroke="#999" stroke-width="2"/>
    </g>
</svg>
